<?xml version="1.0" encoding="utf-8"?>
<!-- Generator: Adobe Illustrator 27.0.1, SVG Export Plug-In . SVG Version: 6.00 Build 0)  -->
<svg version="1.1" id="Capa_1" xmlns="http://www.w3.org/2000/svg" xmlns:xlink="http://www.w3.org/1999/xlink" x="0px" y="0px"
	 viewBox="0 0 1920 1080" style="enable-background:new 0 0 1920 1080;" xml:space="preserve">
<g>
	<path d="M27,40.65c0,0,270.96-76.89,449.94,108.55c0,0,121.81,92.37,121.81,271.2c0,0,29.83,490.9,72.09,527.08
		c0,0,24.86,70.1,62.15,99.5c0,0-253.56,70.1-422.59-160.56c0,0-93.84-85.93-98.19-413.84S27,40.65,27,40.65z"/>
	<path d="M1187.02,40.65c0,0,270.96-76.89,449.94,108.55c0,0,121.81,92.37,121.81,271.2c0,0,29.83,490.9,72.09,527.08
		c0,0,24.86,70.1,62.15,99.5c0,0-253.56,70.1-422.59-160.56c0,0-93.84-85.93-98.19-413.84
		C1367.86,144.68,1187.02,40.65,1187.02,40.65z"/>
	<path d="M598.75,40.07c0,0,170.28-54.82,363.64,38.07c0,0,185.73,103.85,209.34,246.32c27.97,262.89,23.64,481.43,68.98,503.7
		c0,0-193.61,17.65-356.1-157.71c0,0-72.09-49.75-107.85-302.02C741.72,121.17,598.75,40.07,598.75,40.07z"/>
</g>
</svg>
