<?xml version="1.0" encoding="UTF-8"?>
<svg id="Capa_1" data-name="Capa 1" xmlns="http://www.w3.org/2000/svg" xmlns:xlink="http://www.w3.org/1999/xlink" viewBox="0 0 1384.96 1021.68">
  <defs>
    <linearGradient id="Degradado_sin_nombre_3" data-name="Degradado sin nombre 3" x1="32.4" y1="508.4" x2="1590.69" y2="513.54" gradientUnits="userSpaceOnUse">
      <stop offset=".13" stop-color="#1bd392"/>
      <stop offset=".64" stop-color="#1bd392"/>
    </linearGradient>
  </defs>
  <path d="M697.92,756.96l261.64,264.21h381.86c38.29-16.06,57.98-38.85,29.57-79.07l-302.14-304.07s-183.21-161.04-390.54,0l-286.39,284.46-222.75,1.93,369.32-368.36s54.64-45,0-87.75L169.7,97.61h212.14s14.57-2.57,33.43,24.43l235.71,236.36s199.29,219.21,443.57,0L1376.13,74.89s33.86-64.71-47.14-73.71h-360.43s-10.29-.86-23.79,12c-13.5,12.86-224.36,226.29-224.36,226.29,0,0-15.43,13.93-20.79,29.36,0,0,53.25,52.93,65.79,57.43,0,0,9.64-3.21,64.61-62.04l166.18-166.18,222.43,.64-207,205.71s-98.36,99.21-241.07,25.93c-1.17,1.49-49.28-38.53-104.79-93.27L457.7,26.89s-21.43-31.31-58.29-25.73L41.13,.5S8.56,7.61,.84,47.04c0,0-6,13.29,32.14,52.71S446.13,510.84,446.13,510.84L11.99,945.32s-34.71,43.07,21.86,74.25l385.71,1.61s9,0,27-16.71c16.33-15.17,234.87-233.59,275.2-273.91,4.12-4.11,6.38-6.37,6.38-6.37,0,0,2.42-2.59,7.02-6.71,4.6-4.12,11.38-9.76,20.08-15.86,.86-.6,1.74-1.21,2.63-1.82,46.35-31.54,142.31-72.32,255.05,19.24l206.36,205.39h-222.75l-211.18-207.32s-11.36-12.86-23.57-17.57l-4.8,.87-4.32,3.07-2.35,1.73-4.81,3.65-8.72,7.22-2.96,2.64-.74,.66-.76,.71-.52,.49-6.23,6.2-6.37,6.36-4,4-3.43,3.42-12.87,12.92s-1.52,.85-1.41,1.86c0,0-.09,.2,.42,1.65Z" style="fill: url(#Degradado_sin_nombre_3); stroke: #1d1d1b; stroke-miterlimit: 10;"/>
</svg>